<?xml version="1.0" encoding="UTF-8"?>
<svg id="Layer_1" xmlns="http://www.w3.org/2000/svg" version="1.1" viewBox="0 0 1080 1080">
  <!-- Generator: Adobe Illustrator 30.1.0, SVG Export Plug-In . SVG Version: 2.1.1 Build 136)  -->
  <defs>
    <style>
      .st0 {
        fill: #896059;
      }
    </style>
  </defs>
  <g id="Layer_11">
    <g>
      <path class="st0" d="M204.61,274.05c0,1.79-1.35,5.28-4.03,10.49s-4.47,7.81-5.36,7.81c-7.15-1.18-15.19-3.57-24.1-7.15-18.15,27.68-54.17,56.41-108.06,86.17-4.75,2.39-16.22,7.15-34.37,14.29-18.15,7.15-27.68,10.28-28.57,9.37-1.18-1.48,8.19-7.59,28.13-18.31,67.57-36.02,112.98-67.42,136.19-94.22-19.96-9.21-29.92-20.09-29.92-32.58,0-7.43,4.32-16.44,12.96-27.01,8.63-10.57,16.81-15.85,24.56-15.85,9.83,0,14.75,10.87,14.75,32.58,0,8.34-1.64,16.84-4.92,25.45,15.19,5.06,22.77,8.04,22.77,8.93h-.03v.02ZM174.69,262.43c4.47-20.55,1.04-30.8-10.27-30.8-10.42,0-15.64,4.32-15.64,12.95,0,5.66,8.63,11.61,25.89,17.87h0l.02-.02Z"/>
      <path class="st0" d="M432.57,438.23c0,7.45-1.64,15.26-4.92,23.44-3.29,8.19-5.95,12.28-8.04,12.28-1.18,0-5-4.24-11.39-12.72-6.4-8.49-11.98-12.72-16.73-12.72-13.4,0-34.38,13.76-62.97,41.3-28.57,27.54-42.86,48.45-42.86,62.73,0,6.84,7,13.7,20.99,20.55,12.2,6.25,23.8,9.83,34.82,10.72,31.25,2.98,52.52,7.6,63.85,13.84,10.42,6.27,15.64,15.34,15.64,27.24,0,23.53-5.95,42.71-17.87,57.61-19.35,24.71-57.16,50.15-113.42,76.34-61.32,28.27-114.62,42.41-159.86,42.41-58.64,0-98.69-25.89-120.11-77.69-11.61-28.87-12.79-63.55-3.57-104.05,5.36-23.23,13.25-45.39,23.66-66.54,7.15-14.29,11.75-20.99,13.84-20.09,2.39.89,1.04,8.63-4.01,23.23-12.2,34.23-18.32,61.32-18.32,81.26,0,31.86,9.52,58.2,28.57,79.03,22.03,24.1,53.73,36.16,95.11,36.16,34.82,0,74.11-8.49,117.89-25.45,32.73-12.51,64.88-28.43,96.45-47.78,26.78-16.08,40.18-25.59,40.18-28.57,0-8.33-12.07-13.85-36.17-16.52-66.09-7.43-99.13-25.91-99.13-55.37,0-34.84,17.26-73.37,51.8-115.64,33.34-40.77,61.76-61.17,85.29-61.17,8.33,0,15.63,3.65,21.88,10.93,6.25,7.3,9.39,15.7,9.39,25.22v.03h.02ZM165.54,426.62c.59.89-.38,4.68-2.91,11.39-2.53,6.69-4.09,10.2-4.68,10.49-31.55,10.11-53.58,20.99-66.09,32.58-3.57,3.57-5.36,3.29-5.36-.89,0-11.31,5.95-19.94,17.87-25.89-8.93-4.75-13.4-13.1-13.4-25,0-24.69,12.79-37.06,38.4-37.06,11.31,0,16.97,5.22,16.97,15.64s-3.86,16.23-11.61,16.52c-1.5-8.63-6.84-12.95-16.08-12.95-9.83,0-14.73,3.57-14.73,10.72,0,11.61,9.83,17.43,29.46,17.43,2.38,0,10.86-3.72,25.45-11.17,3.86-2.07,6.1-2.68,6.71-1.79h0v-.02Z"/>
      <path class="st0" d="M576.87,649.79c0,30.36-10.27,57.6-30.8,81.71-10.13,11.89-42.71,34.07-97.79,66.53-57.16,33.63-100.02,55.07-128.59,64.3-1.18.29-39.73,6.71-115.64,19.21-30.66,5.06-48.83,7.59-54.48,7.59-2.39,0-3.57-.3-3.57-.89,0-2.09,17.41-9.67,52.24-22.77,61.03-22.64,109.85-42.27,146.46-58.94,51.8-23.53,101.2-50.01,148.24-79.49,44.65-27.68,66.98-45.09,66.98-52.24,0-1.48-9.83-21.88-29.46-61.17-10.42-21.14-17.87-40.2-22.33-57.16-2.97-1.5-4.47-3.57-4.47-6.27,0-3.27,1.18-11.31,3.57-24.1,2.68-14.29,4.92-21.44,6.71-21.44.59,0,5.65,5.21,15.19,15.63,23.51,25.6,34.23,39.29,32.14,41.08-1.5,1.5-8.93-.73-22.33-6.69,1.18,4.75,8.04,19.05,20.55,42.86,11.61,21.14,17.41,38.55,17.41,52.24h-.01Z"/>
      <path class="st0" d="M750.92,727.59c4.18,0,6.25,4.18,6.25,12.51,0,21.44-5.65,32.14-16.97,32.14-59.53,0-94.05-47.62-103.59-142.88-19.94-203.01-41.82-328.63-65.64-376.85-.61-1.48,1.33-9.66,5.8-24.56,4.47-14.88,7.15-22.33,8.04-22.33,1.5,0,5.21,7.45,11.17,22.33,7.15,17.56,12.79,34.81,16.97,51.8,12.51,51.8,23.06,114.01,31.69,186.62,11.61,100.63,17.71,152.72,18.32,156.3,11.01,69.95,40.33,104.93,87.95,104.93h0Z"/>
      <path class="st0" d="M874.6,714.19c4.16,0,6.25,4.18,6.25,12.51,0,21.44-5.66,32.14-16.97,32.14-13.1-.61-23.66-5.51-31.7-14.75-5.06-5.65-8.93-15.91-11.61-30.8-22.62,39.29-49.27,58.94-79.91,58.94-4.18,0-6.25-4.18-6.25-12.51,0-21.44,5.65-32.14,16.97-32.14,21.12-1.18,38.09-8.04,50.9-20.55,5.95-9.52,13.84-21.58,23.66-36.17,5.06-7.15,8.93-9.96,11.61-8.48,1.18.61,1.18,2.39,0,5.36-5.06,11.61-2.23,23.23,8.49,34.82,7.74,7.74,17.26,11.61,28.57,11.61h-.02ZM849.15,847.24l-22.33,40.21-46.62-27.34,22.33-40.21,46.62,27.34Z"/>
      <path class="st0" d="M953.64,638.73c.29,31.87-7,59.25-21.88,82.15-16.38,25.3-39,37.96-67.88,37.96-4.18,0-6.25-4.18-6.25-12.51,0-21.44,5.65-32.14,16.97-32.14,13.69,0,26.19-3.57,37.5-10.72,12.79-8.33,18.76-18.44,17.87-30.36-2.68-37.81-15.93-125.17-39.74-262.1-6.54-36.63-15.19-91.37-25.89-164.32-5.36-4.75-7.59-8.33-6.69-10.72,4.75-12.79,8.48-22.47,11.16-29.02,4.47-10.72,7.15-16.08,8.04-16.08,2.68,0,11.61,17.28,26.78,51.8,15.47,35.43,23.23,55.07,23.23,58.94,0,.61-.15,1.04-.44,1.33-2.09,1.5-6.71-1.48-13.85-8.93-2.07-2.38-7.15-7.74-15.19-16.08,12.2,69.66,24.41,139.31,36.61,208.97,12.79,75.01,19.35,125.64,19.65,151.82h0v.02Z"/>
      <path class="st0" d="M1080,680.7c0,13.41-1.5,27.1-4.48,41.08-5.07,25.91-9.4,38.85-12.98,38.85-2.09,0-3.44-5.36-4.04-16.08-1.5-22.91-2.24-35.7-2.24-38.38-5.68-55.96-19.99-149.86-42.97-281.72-6.53-36.61-15.1-91.39-25.74-164.34-5.36-4.75-7.59-8.33-6.69-10.72,2.38-6.54,6.09-16.22,11.16-29.02,4.18-10.72,6.71-16.08,7.6-16.08,1.79,0,10.72,17.28,26.78,51.8,17.87,38.4,25.59,58.49,23.23,60.28-2.39,1.5-7-1.48-13.85-8.93-2.07-2.38-7.3-7.74-15.63-16.08,10.42,55.08,25.59,142.75,45.54,262.99,9.52,62.82,14.29,104.93,14.29,126.35h0l.02.02Z"/>
    </g>
  </g>
</svg>