<?xml version="1.0" encoding="UTF-8"?>
<svg id="Layer_1" xmlns="http://www.w3.org/2000/svg" version="1.1" viewBox="0 0 1080 1080">
  <!-- Generator: Adobe Illustrator 30.3.0, SVG Export Plug-In . SVG Version: 2.1.3 Build 182)  -->
  <defs>
    <style>
      .st0 {
        fill: #31566b;
      }
    </style>
  </defs>
  <g id="Layer_11">
    <g>
      <path class="st0" d="M318.12,356.83c0,1.65-1.24,4.87-3.71,9.67s-4.12,7.2-4.94,7.2c-6.58-1.08-13.99-3.29-22.2-6.58-16.72,25.49-49.9,51.96-99.53,79.36-4.38,2.2-14.94,6.58-31.66,13.17-16.72,6.58-25.49,9.47-26.32,8.63-1.08-1.37,7.54-6.99,25.91-16.86,62.23-33.18,104.06-62.1,125.44-86.78-18.38-8.48-27.56-18.5-27.56-30.01,0-6.85,3.97-15.14,11.94-24.87,7.95-9.74,15.48-14.6,22.62-14.6,9.05,0,13.59,10.01,13.59,30.01,0,7.69-1.5,15.51-4.53,23.44,13.99,4.66,20.97,7.4,20.97,8.23h-.03v.02h0ZM290.56,346.14c4.12-18.92.97-28.37-9.45-28.37-9.6,0-14.41,3.97-14.41,11.92,0,5.22,7.95,10.7,23.85,16.46h0l.02-.02h0Z"/>
      <path class="st0" d="M671.5,646.13c.55,1.65-.42,5.19-2.89,10.68-2.47,5.48-4.25,8.49-5.34,9.06-34.82,12.6-69.64,25.35-104.46,38.24-44.41,16.72-76.36,30.71-95.83,41.95-1.08-2.2-1.03-6.25.21-12.13,1.24-5.9,2.82-9.25,4.73-10.07,61.69-27.96,129.55-53.88,203.57-77.72h.02v-.02h0Z"/>
      <path class="st0" d="M679.62,539.4c0,1.65-2.75,8.3-8.24,19.94-5.48,11.65-8.77,17.61-9.87,17.88-45.24,13.99-107.46,33.59-186.7,58.82.55,8.24-.15,12.36-2.07,12.36s-4.66-3.01-8.23-9.05c-41.95,13.71-68,22.62-78.14,26.72-34.54,13.43-61.82,28.52-81.83,45.25-24.41,22.74-48.81,45.51-73.2,68.26-21.11,18.92-40.3,28.38-57.58,28.38s-32.84-6.11-44.21-18.3c-11.38-12.2-17.07-27.62-17.07-46.27,0-33.18,11.38-63.88,34.14-92.12,9.6-11.77,16.04-16.17,19.32-13.17,1.65,1.38-2.6,8.65-12.75,21.79-17.56,22.48-26.32,44.83-26.32,67.03,0,31.53,13.83,47.3,41.53,47.3,19.19,0,42.5-13.3,69.9-39.88,38.93-38.11,66.07-62.1,81.42-71.97,27.96-18.1,67.44-35.36,118.43-51.82-18.1-13.43-38.51-29.47-61.28-48.13-6.86-7.66-10.29-17.53-10.29-29.61,0-32.34,19.61-48.51,58.82-48.51,20.84,0,80.06,11.38,177.66,34.12,51,11.52,76.49,18.5,76.49,20.97h.02v-.02.02ZM601.88,559.56c-24.41-7.67-59.63-15.75-105.69-24.26-44.7-8.23-74.44-12.36-89.24-12.36s-22.62,2.07-22.62,6.18c0,1.65,7.81,8.09,23.44,19.32,18.64,12.89,29.89,21.11,33.72,24.67,9.32,9.03,16.87,18.79,22.62,29.19,13.17-3.83,59.07-18.1,137.77-42.77v.03h.02,0ZM566.92,403.3l-20.57,37.03-42.95-25.18,20.58-37.03,42.94,25.18h0Z"/>
      <path class="st0" d="M798.07,610.14c-1.91,0-4.25-5.48-6.99-16.46-3.85-14.52-6.44-23.57-7.82-27.14-12.34-27.69-32.36-57.02-60.05-88.02-31.53-33.99-63.06-67.98-94.59-101.99-39.48-44.14-68.54-83.34-87.19-117.61-3.29-1.38-6.72-3.29-10.28-5.77-.55-1.37-.14-8.63,1.23-21.79,1.38-13.17,2.6-19.74,3.71-19.74,1.91,0,13.78,9.05,35.58,27.14,21.79,18.1,32.42,27.96,31.88,29.61-.82,2.75-10.42,1.23-28.79-4.52,10.96,17.82,35.77,47.98,74.42,90.47,59.77,65.8,90.47,99.66,92.12,101.58,30.16,35.1,48.67,68.68,55.53,100.76,7.67,35.64,8.08,53.45,1.23,53.45v.04h0Z"/>
      <path class="st0" d="M845.77,534.07c1.38,78.41-22.48,135.03-71.55,169.84-19.19,13.17-50.58,24.26-94.17,33.31-25.23,5.2-38.11,7.13-38.66,5.76-.26-.82,8.49-6.04,26.32-15.64,23.85-12.62,43.45-24.14,58.81-34.54,43.86-29.34,72.94-54.01,87.19-74.02,8.49-12.07,12.6-25.09,12.34-39.06-.55-26.59-9.45-89.51-26.72-188.77-18.38-104.73-28.38-168.75-30.02-192.07-3.85-3.83-5.76-6.71-5.76-8.63,0-1.65,2.54-8.37,7.62-20.15,5.06-11.78,8.28-17.69,9.65-17.69,2.2,0,10.55,15.98,25.09,47.9,14.52,31.95,20.69,48.62,18.5,49.96-3.29,1.92-11.52-6.02-24.67-23.85,7.95,45.8,15.9,91.44,23.85,136.94,14.25,81.18,21.66,138.06,22.2,170.68v.03h0Z"/>
      <path class="st0" d="M967.5,592.05c0,12.36-1.38,24.96-4.12,37.83-4.67,23.86-8.66,35.78-11.95,35.78-1.92,0-3.15-4.94-3.71-14.81-1.38-21.1-2.07-32.89-2.07-35.35-5.23-51.54-18.42-138.03-39.58-259.48-5.99-33.72-13.9-84.17-23.71-151.36-4.94-4.38-6.99-7.67-6.17-9.87,2.2-6.02,5.62-14.94,10.29-26.73,3.83-9.87,6.17-14.81,6.99-14.81,1.65,0,9.87,15.91,24.67,47.71,16.46,35.36,23.58,53.87,21.39,55.51-2.2,1.38-6.44-1.37-12.75-8.23-1.92-2.19-6.72-7.13-14.41-14.81,9.6,50.73,23.58,131.47,41.96,242.23,8.77,57.86,13.15,96.64,13.15,116.38h0v.02h.02Z"/>
      <path class="st0" d="M663.6,143.18c0,12.33-8.23,32.89-24.67,61.68-1.08,1.92-2.05,2.34-2.87,1.24-.82-1.37-.97-3.29-.42-5.76,1.38-6.3,4.66-13.43,9.87-21.39,4.38-7.13,7.27-14.39,8.65-21.79-54.57,26.61-101.29,39.9-140.24,39.9-19.19,0-40.71-3.01-64.57-9.05,1.38,8.77,1.5,16.59.4,23.44-1.65,7.96-3.55,11.8-5.76,11.52-1.91,0-2.6-1.08-2.05-3.29,1.38-4.1,2.05-7.39,2.05-9.87,0-17.8-7.25-35.63-21.79-53.45.82-4.38,2.2-8.77,4.12-13.17.26,0,3.15,3.7,8.63,11.1,10.97,14.53,37.43,22.07,79.37,22.62,37.01.28,80.06-10.95,129.13-33.71,8.23-3.85,12.75-5.77,13.57-5.77,4.38,0,6.58,1.92,6.58,5.77h0v-.02h0Z"/>
    </g>
  </g>
</svg>